<mxfile host="app.diagrams.net" agent="Mozilla/5.0 (Windows NT 10.0; Win64; x64; rv:132.0) Gecko/20100101 Firefox/132.0" version="24.8.4">
  <diagram name="Sayfa -1" id="dz3sbNRHeDbI_Q6snPa1">
    <mxGraphModel dx="794" dy="494" grid="1" gridSize="10" guides="1" tooltips="1" connect="1" arrows="1" fold="1" page="1" pageScale="1" pageWidth="827" pageHeight="1169" math="0" shadow="0">
      <root>
        <mxCell id="0" />
        <mxCell id="1" parent="0" />
        <mxCell id="ZTao545rvQ0QBk52h7uM-1" value="" style="edgeStyle=orthogonalEdgeStyle;rounded=0;orthogonalLoop=1;jettySize=auto;html=1;" parent="1" source="ZTao545rvQ0QBk52h7uM-2" target="ZTao545rvQ0QBk52h7uM-4" edge="1">
          <mxGeometry relative="1" as="geometry" />
        </mxCell>
        <mxCell id="ZTao545rvQ0QBk52h7uM-2" value="&lt;div&gt;START&lt;/div&gt;" style="ellipse;whiteSpace=wrap;html=1;" parent="1" vertex="1">
          <mxGeometry x="380" y="20" width="120" height="80" as="geometry" />
        </mxCell>
        <mxCell id="ZTao545rvQ0QBk52h7uM-3" value="" style="edgeStyle=orthogonalEdgeStyle;rounded=0;orthogonalLoop=1;jettySize=auto;html=1;" parent="1" source="ZTao545rvQ0QBk52h7uM-4" target="ZTao545rvQ0QBk52h7uM-6" edge="1">
          <mxGeometry relative="1" as="geometry" />
        </mxCell>
        <mxCell id="ZTao545rvQ0QBk52h7uM-4" value="&#39;Üçgenin üç köşe noktasını girin.&#39;" style="shape=document;whiteSpace=wrap;html=1;boundedLbl=1;" parent="1" vertex="1">
          <mxGeometry x="380" y="150" width="120" height="80" as="geometry" />
        </mxCell>
        <mxCell id="ZTao545rvQ0QBk52h7uM-5" value="" style="edgeStyle=orthogonalEdgeStyle;rounded=0;orthogonalLoop=1;jettySize=auto;html=1;" parent="1" source="ZTao545rvQ0QBk52h7uM-6" target="ZTao545rvQ0QBk52h7uM-7" edge="1">
          <mxGeometry relative="1" as="geometry" />
        </mxCell>
        <mxCell id="ZTao545rvQ0QBk52h7uM-6" value="&lt;div&gt;ax, ay,&amp;nbsp;&lt;/div&gt;&lt;div&gt;bx, by,&lt;/div&gt;&lt;div&gt;cx, cy&lt;br&gt;&lt;/div&gt;" style="shape=card;whiteSpace=wrap;html=1;" parent="1" vertex="1">
          <mxGeometry x="400" y="270" width="80" height="60" as="geometry" />
        </mxCell>
        <mxCell id="ZTao545rvQ0QBk52h7uM-9" value="" style="edgeStyle=orthogonalEdgeStyle;rounded=0;orthogonalLoop=1;jettySize=auto;html=1;entryX=0.5;entryY=0;entryDx=0;entryDy=0;" parent="1" source="ZTao545rvQ0QBk52h7uM-7" target="ZTao545rvQ0QBk52h7uM-8" edge="1">
          <mxGeometry relative="1" as="geometry">
            <mxPoint x="440" y="580" as="targetPoint" />
          </mxGeometry>
        </mxCell>
        <mxCell id="ZTao545rvQ0QBk52h7uM-7" value="&lt;div&gt;K_kenarkare = (bx - ax)*(bx-ax) + (by - ay)*(by -ay)&lt;/div&gt;&lt;div&gt;L_kenarkare = (cx - bx)*(cx-bx) + (cy - by)*(cy -by)&lt;/div&gt;&lt;div&gt;M_kenarkare = (cx - ax)*(cx-ax) + (cy - ay)*(cy -ay)&lt;/div&gt;" style="rounded=0;whiteSpace=wrap;html=1;" parent="1" vertex="1">
          <mxGeometry x="265" y="390" width="350" height="130" as="geometry" />
        </mxCell>
        <mxCell id="ZTao545rvQ0QBk52h7uM-8" value="K_kenarkare &amp;lt; L_kenarkare" style="shape=hexagon;perimeter=hexagonPerimeter2;whiteSpace=wrap;html=1;fixedSize=1;" parent="1" vertex="1">
          <mxGeometry x="340" y="600" width="200" height="80" as="geometry" />
        </mxCell>
        <mxCell id="ZTao545rvQ0QBk52h7uM-10" value="" style="endArrow=classic;html=1;rounded=0;" parent="1" source="ZTao545rvQ0QBk52h7uM-8" edge="1">
          <mxGeometry width="50" height="50" relative="1" as="geometry">
            <mxPoint x="500" y="640" as="sourcePoint" />
            <mxPoint x="560" y="720" as="targetPoint" />
            <Array as="points">
              <mxPoint x="560" y="640" />
            </Array>
          </mxGeometry>
        </mxCell>
        <mxCell id="ZTao545rvQ0QBk52h7uM-11" value="" style="endArrow=classic;html=1;rounded=0;exitX=0;exitY=0.5;exitDx=0;exitDy=0;" parent="1" edge="1" source="ZTao545rvQ0QBk52h7uM-8">
          <mxGeometry width="50" height="50" relative="1" as="geometry">
            <mxPoint x="340" y="640" as="sourcePoint" />
            <mxPoint x="310" y="720" as="targetPoint" />
            <Array as="points">
              <mxPoint x="310" y="640" />
            </Array>
          </mxGeometry>
        </mxCell>
        <mxCell id="ZTao545rvQ0QBk52h7uM-12" value="T" style="text;html=1;align=center;verticalAlign=middle;resizable=0;points=[];autosize=1;strokeColor=none;fillColor=none;" parent="1" vertex="1">
          <mxGeometry x="540" y="608" width="30" height="30" as="geometry" />
        </mxCell>
        <mxCell id="ZTao545rvQ0QBk52h7uM-13" value="F" style="text;html=1;align=center;verticalAlign=middle;resizable=0;points=[];autosize=1;strokeColor=none;fillColor=none;" parent="1" vertex="1">
          <mxGeometry x="300" y="608" width="30" height="30" as="geometry" />
        </mxCell>
        <mxCell id="ZTao545rvQ0QBk52h7uM-14" value="&lt;div&gt;smallest = K_kenarkare&lt;/div&gt;&lt;div&gt;largest = L_kenarkare&lt;br&gt;&lt;/div&gt;" style="rounded=0;whiteSpace=wrap;html=1;" parent="1" vertex="1">
          <mxGeometry x="480" y="720" width="160" height="60" as="geometry" />
        </mxCell>
        <mxCell id="ZTao545rvQ0QBk52h7uM-15" value="&lt;div&gt;smallest = L_kenarkare&lt;/div&gt;&lt;div&gt;largest = K_kenarkare&lt;br&gt;&lt;/div&gt;" style="rounded=0;whiteSpace=wrap;html=1;" parent="1" vertex="1">
          <mxGeometry x="230" y="720" width="170" height="60" as="geometry" />
        </mxCell>
        <mxCell id="ZTao545rvQ0QBk52h7uM-16" value="" style="endArrow=classic;html=1;rounded=0;" parent="1" edge="1">
          <mxGeometry width="50" height="50" relative="1" as="geometry">
            <mxPoint x="310" y="780" as="sourcePoint" />
            <mxPoint x="440" y="840" as="targetPoint" />
            <Array as="points">
              <mxPoint x="310" y="840" />
            </Array>
          </mxGeometry>
        </mxCell>
        <mxCell id="ZTao545rvQ0QBk52h7uM-17" value="" style="endArrow=classic;html=1;rounded=0;" parent="1" edge="1">
          <mxGeometry width="50" height="50" relative="1" as="geometry">
            <mxPoint x="560" y="780" as="sourcePoint" />
            <mxPoint x="440" y="840" as="targetPoint" />
            <Array as="points">
              <mxPoint x="560" y="840" />
            </Array>
          </mxGeometry>
        </mxCell>
        <mxCell id="ZTao545rvQ0QBk52h7uM-18" value="" style="endArrow=classic;html=1;rounded=0;" parent="1" edge="1">
          <mxGeometry width="50" height="50" relative="1" as="geometry">
            <mxPoint x="439.5" y="840" as="sourcePoint" />
            <mxPoint x="439.5" y="880" as="targetPoint" />
          </mxGeometry>
        </mxCell>
        <mxCell id="ZTao545rvQ0QBk52h7uM-19" value="M_kenarkare &amp;lt; smallest" style="shape=hexagon;perimeter=hexagonPerimeter2;whiteSpace=wrap;html=1;fixedSize=1;" parent="1" vertex="1">
          <mxGeometry x="350" y="880" width="170" height="80" as="geometry" />
        </mxCell>
        <mxCell id="ZTao545rvQ0QBk52h7uM-21" value="" style="endArrow=classic;html=1;rounded=0;entryX=0.5;entryY=0;entryDx=0;entryDy=0;exitX=1;exitY=0.5;exitDx=0;exitDy=0;" parent="1" target="ZTao545rvQ0QBk52h7uM-23" edge="1" source="ZTao545rvQ0QBk52h7uM-19">
          <mxGeometry width="50" height="50" relative="1" as="geometry">
            <mxPoint x="500" y="920" as="sourcePoint" />
            <mxPoint x="560" y="1006" as="targetPoint" />
            <Array as="points">
              <mxPoint x="560" y="920" />
            </Array>
          </mxGeometry>
        </mxCell>
        <mxCell id="ZTao545rvQ0QBk52h7uM-22" value="" style="endArrow=classic;html=1;rounded=0;exitX=0;exitY=0.5;exitDx=0;exitDy=0;" parent="1" edge="1" source="ZTao545rvQ0QBk52h7uM-19">
          <mxGeometry width="50" height="50" relative="1" as="geometry">
            <mxPoint x="380" y="920" as="sourcePoint" />
            <mxPoint x="310" y="1000" as="targetPoint" />
            <Array as="points">
              <mxPoint x="310" y="920" />
            </Array>
          </mxGeometry>
        </mxCell>
        <mxCell id="ZTao545rvQ0QBk52h7uM-23" value="&lt;div&gt;smallest = M_kenarkare&lt;/div&gt;" style="rounded=0;whiteSpace=wrap;html=1;" parent="1" vertex="1">
          <mxGeometry x="480" y="1010" width="160" height="60" as="geometry" />
        </mxCell>
        <mxCell id="ZTao545rvQ0QBk52h7uM-24" value="M_kenarkare &amp;gt; largest" style="shape=hexagon;perimeter=hexagonPerimeter2;whiteSpace=wrap;html=1;fixedSize=1;" parent="1" vertex="1">
          <mxGeometry x="220" y="1000" width="160" height="80" as="geometry" />
        </mxCell>
        <mxCell id="ZTao545rvQ0QBk52h7uM-27" value="" style="endArrow=classic;html=1;rounded=0;exitX=1;exitY=0.5;exitDx=0;exitDy=0;" parent="1" edge="1" source="ZTao545rvQ0QBk52h7uM-24">
          <mxGeometry width="50" height="50" relative="1" as="geometry">
            <mxPoint x="370" y="1040" as="sourcePoint" />
            <mxPoint x="400" y="1120" as="targetPoint" />
            <Array as="points">
              <mxPoint x="400" y="1040" />
            </Array>
          </mxGeometry>
        </mxCell>
        <mxCell id="ZTao545rvQ0QBk52h7uM-28" value="largest = M_kenarkare" style="rounded=0;whiteSpace=wrap;html=1;" parent="1" vertex="1">
          <mxGeometry x="330" y="1120" width="130" height="60" as="geometry" />
        </mxCell>
        <mxCell id="ZTao545rvQ0QBk52h7uM-29" value="" style="endArrow=classic;html=1;rounded=0;exitX=0;exitY=0.5;exitDx=0;exitDy=0;" parent="1" edge="1" source="ZTao545rvQ0QBk52h7uM-24">
          <mxGeometry width="50" height="50" relative="1" as="geometry">
            <mxPoint x="250" y="1040" as="sourcePoint" />
            <mxPoint x="200" y="1120" as="targetPoint" />
            <Array as="points">
              <mxPoint x="200" y="1040" />
            </Array>
          </mxGeometry>
        </mxCell>
        <mxCell id="ZTao545rvQ0QBk52h7uM-30" value="middle =&amp;nbsp; M_kenarkare" style="rounded=0;whiteSpace=wrap;html=1;" parent="1" vertex="1">
          <mxGeometry x="120" y="1120" width="150" height="60" as="geometry" />
        </mxCell>
        <mxCell id="ZTao545rvQ0QBk52h7uM-31" value="" style="endArrow=classic;html=1;rounded=0;" parent="1" edge="1">
          <mxGeometry width="50" height="50" relative="1" as="geometry">
            <mxPoint x="200" y="1180" as="sourcePoint" />
            <mxPoint x="300" y="1230" as="targetPoint" />
            <Array as="points">
              <mxPoint x="200" y="1230" />
            </Array>
          </mxGeometry>
        </mxCell>
        <mxCell id="ZTao545rvQ0QBk52h7uM-32" value="" style="endArrow=classic;html=1;rounded=0;" parent="1" edge="1">
          <mxGeometry width="50" height="50" relative="1" as="geometry">
            <mxPoint x="400" y="1180" as="sourcePoint" />
            <mxPoint x="300" y="1230" as="targetPoint" />
            <Array as="points">
              <mxPoint x="400" y="1230" />
            </Array>
          </mxGeometry>
        </mxCell>
        <mxCell id="ZTao545rvQ0QBk52h7uM-33" value="" style="endArrow=classic;html=1;rounded=0;" parent="1" edge="1">
          <mxGeometry width="50" height="50" relative="1" as="geometry">
            <mxPoint x="300" y="1230" as="sourcePoint" />
            <mxPoint x="440" y="1280" as="targetPoint" />
            <Array as="points">
              <mxPoint x="300" y="1280" />
            </Array>
          </mxGeometry>
        </mxCell>
        <mxCell id="ZTao545rvQ0QBk52h7uM-34" value="" style="endArrow=classic;html=1;rounded=0;" parent="1" edge="1">
          <mxGeometry width="50" height="50" relative="1" as="geometry">
            <mxPoint x="560" y="1070" as="sourcePoint" />
            <mxPoint x="440" y="1280" as="targetPoint" />
            <Array as="points">
              <mxPoint x="560" y="1280" />
            </Array>
          </mxGeometry>
        </mxCell>
        <mxCell id="ZTao545rvQ0QBk52h7uM-35" value="" style="endArrow=classic;html=1;rounded=0;" parent="1" edge="1">
          <mxGeometry width="50" height="50" relative="1" as="geometry">
            <mxPoint x="439.5" y="1280" as="sourcePoint" />
            <mxPoint x="440" y="1320" as="targetPoint" />
          </mxGeometry>
        </mxCell>
        <mxCell id="ZTao545rvQ0QBk52h7uM-36" value="T" style="text;html=1;align=center;verticalAlign=middle;resizable=0;points=[];autosize=1;strokeColor=none;fillColor=none;" parent="1" vertex="1">
          <mxGeometry x="540" y="890" width="30" height="30" as="geometry" />
        </mxCell>
        <mxCell id="ZTao545rvQ0QBk52h7uM-37" value="F" style="text;html=1;align=center;verticalAlign=middle;resizable=0;points=[];autosize=1;strokeColor=none;fillColor=none;" parent="1" vertex="1">
          <mxGeometry x="300" y="890" width="30" height="30" as="geometry" />
        </mxCell>
        <mxCell id="WB0zMzoUUixFChTl5kHt-3" value="" style="edgeStyle=orthogonalEdgeStyle;rounded=0;orthogonalLoop=1;jettySize=auto;html=1;" edge="1" parent="1" source="ZTao545rvQ0QBk52h7uM-38" target="ZTao545rvQ0QBk52h7uM-28">
          <mxGeometry relative="1" as="geometry" />
        </mxCell>
        <mxCell id="ZTao545rvQ0QBk52h7uM-38" value="T" style="text;html=1;align=center;verticalAlign=middle;resizable=0;points=[];autosize=1;strokeColor=none;fillColor=none;" parent="1" vertex="1">
          <mxGeometry x="385" y="1010" width="30" height="30" as="geometry" />
        </mxCell>
        <mxCell id="ZTao545rvQ0QBk52h7uM-39" value="F" style="text;html=1;align=center;verticalAlign=middle;resizable=0;points=[];autosize=1;strokeColor=none;fillColor=none;" parent="1" vertex="1">
          <mxGeometry x="185" y="1010" width="30" height="30" as="geometry" />
        </mxCell>
        <mxCell id="ZTao545rvQ0QBk52h7uM-40" value="" style="endArrow=classic;html=1;rounded=0;entryX=0.5;entryY=0;entryDx=0;entryDy=0;" parent="1" edge="1">
          <mxGeometry width="50" height="50" relative="1" as="geometry">
            <mxPoint x="530" y="1360" as="sourcePoint" />
            <mxPoint x="580" y="1430" as="targetPoint" />
            <Array as="points">
              <mxPoint x="580" y="1360" />
            </Array>
          </mxGeometry>
        </mxCell>
        <mxCell id="ZTao545rvQ0QBk52h7uM-41" value="" style="endArrow=classic;html=1;rounded=0;entryX=0.5;entryY=0;entryDx=0;entryDy=0;" parent="1" target="ZTao545rvQ0QBk52h7uM-47" edge="1">
          <mxGeometry width="50" height="50" relative="1" as="geometry">
            <mxPoint x="350" y="1360" as="sourcePoint" />
            <mxPoint x="300" y="1420" as="targetPoint" />
            <Array as="points">
              <mxPoint x="300" y="1360" />
            </Array>
          </mxGeometry>
        </mxCell>
        <mxCell id="ZTao545rvQ0QBk52h7uM-42" value="" style="endArrow=classic;html=1;rounded=0;" parent="1" target="ZTao545rvQ0QBk52h7uM-43" edge="1">
          <mxGeometry width="50" height="50" relative="1" as="geometry">
            <mxPoint x="370" y="1390" as="sourcePoint" />
            <mxPoint x="420" y="1340" as="targetPoint" />
          </mxGeometry>
        </mxCell>
        <mxCell id="ZTao545rvQ0QBk52h7uM-43" value="smallest + middle = largest" style="shape=hexagon;perimeter=hexagonPerimeter2;whiteSpace=wrap;html=1;fixedSize=1;" parent="1" vertex="1">
          <mxGeometry x="320" y="1320" width="230" height="80" as="geometry" />
        </mxCell>
        <mxCell id="ZTao545rvQ0QBk52h7uM-44" value="" style="endArrow=classic;html=1;rounded=0;" parent="1" edge="1">
          <mxGeometry width="50" height="50" relative="1" as="geometry">
            <mxPoint x="579.5" y="1490" as="sourcePoint" />
            <mxPoint x="440" y="1550" as="targetPoint" />
            <Array as="points">
              <mxPoint x="580" y="1550" />
            </Array>
          </mxGeometry>
        </mxCell>
        <mxCell id="ZTao545rvQ0QBk52h7uM-45" value="" style="endArrow=classic;html=1;rounded=0;" parent="1" edge="1">
          <mxGeometry width="50" height="50" relative="1" as="geometry">
            <mxPoint x="439.5" y="1550" as="sourcePoint" />
            <mxPoint x="439.5" y="1580" as="targetPoint" />
          </mxGeometry>
        </mxCell>
        <mxCell id="ZTao545rvQ0QBk52h7uM-46" value="&#39;Bu bir dik üçgen&#39;" style="shape=document;whiteSpace=wrap;html=1;boundedLbl=1;" parent="1" vertex="1">
          <mxGeometry x="520" y="1430" width="120" height="80" as="geometry" />
        </mxCell>
        <mxCell id="ZTao545rvQ0QBk52h7uM-47" value="&#39;Bu bir dik üçgen değil&#39;" style="shape=document;whiteSpace=wrap;html=1;boundedLbl=1;" parent="1" vertex="1">
          <mxGeometry x="240" y="1430" width="120" height="80" as="geometry" />
        </mxCell>
        <mxCell id="ZTao545rvQ0QBk52h7uM-48" value="" style="endArrow=classic;html=1;rounded=0;exitX=0.5;exitY=0.888;exitDx=0;exitDy=0;exitPerimeter=0;" parent="1" source="ZTao545rvQ0QBk52h7uM-47" edge="1">
          <mxGeometry width="50" height="50" relative="1" as="geometry">
            <mxPoint x="300" y="1510" as="sourcePoint" />
            <mxPoint x="440" y="1550" as="targetPoint" />
            <Array as="points">
              <mxPoint x="300" y="1550" />
            </Array>
          </mxGeometry>
        </mxCell>
        <mxCell id="ZTao545rvQ0QBk52h7uM-49" value="T" style="text;html=1;align=center;verticalAlign=middle;resizable=0;points=[];autosize=1;strokeColor=none;fillColor=none;" parent="1" vertex="1">
          <mxGeometry x="565" y="1330" width="30" height="30" as="geometry" />
        </mxCell>
        <mxCell id="ZTao545rvQ0QBk52h7uM-50" value="F" style="text;html=1;align=center;verticalAlign=middle;resizable=0;points=[];autosize=1;strokeColor=none;fillColor=none;" parent="1" vertex="1">
          <mxGeometry x="285" y="1330" width="30" height="30" as="geometry" />
        </mxCell>
        <mxCell id="ZTao545rvQ0QBk52h7uM-51" value="STOP" style="ellipse;whiteSpace=wrap;html=1;" parent="1" vertex="1">
          <mxGeometry x="380" y="1580" width="120" height="80" as="geometry" />
        </mxCell>
      </root>
    </mxGraphModel>
  </diagram>
</mxfile>
